<svg width="119" height="20" viewBox="0 0 119 20" fill="#99A4AE" xmlns="http://www.w3.org/2000/svg">
<path d="M4.21215 18.6036C4.21215 19.1081 4.21215 19.3604 4.05542 19.5171C3.8987 19.6738 3.64646 19.6738 3.14199 19.6738H1.45541C0.950935 19.6738 0.698698 19.6738 0.541979 19.5171C0.385254 19.3604 0.385254 19.1081 0.385254 18.6036V7.23428C0.385254 6.7298 0.385254 6.47757 0.541979 6.32084C0.698698 6.16412 0.95094 6.16412 1.45541 6.16412H3.14199C3.64646 6.16412 3.8987 6.16412 4.05542 6.32084C4.21215 6.47757 4.21215 6.7298 4.21215 7.23428V18.6036ZM4.57171 2.26017C4.57171 2.9622 4.34056 3.51868 3.87825 3.92962C3.43307 4.32344 2.90227 4.52035 2.28586 4.52035C1.66944 4.52035 1.13008 4.32344 0.667776 3.92962C0.22259 3.51868 0 2.9622 0 2.26017C0 1.55815 0.22259 1.01023 0.667776 0.616409C1.13008 0.20547 1.66944 0 2.28586 0C2.90227 0 3.43307 0.20547 3.87825 0.616409C4.34056 1.01023 4.57171 1.55815 4.57171 2.26017Z"/>
<path d="M6.97171 3.40292C6.97171 2.96772 6.97171 2.75013 7.09949 2.60015C7.22721 2.45019 7.44204 2.41558 7.87171 2.34638L9.55828 2.07471C10.1344 1.98192 10.4224 1.93552 10.6105 2.09576C10.7986 2.25599 10.7986 2.54774 10.7986 3.13125V4.78576C10.7986 5.29023 10.7986 5.54247 10.9553 5.6992C11.112 5.85592 11.3643 5.85592 11.8688 5.85592H14.3258C14.8303 5.85592 15.0826 5.85592 15.2393 6.01265C15.396 6.16937 15.396 6.42161 15.396 6.92608V7.97055C15.396 8.47503 15.396 8.72726 15.2393 8.88399C15.0826 9.04071 14.8303 9.04071 14.3258 9.04071H11.8688C11.3643 9.04071 11.112 9.04071 10.9553 9.19744C10.7986 9.35416 10.7986 9.6064 10.7986 10.1109V13.7922C10.7986 14.597 10.9356 15.2391 11.2095 15.7185C11.5006 16.1979 12.0742 16.4377 12.9304 16.4377C13.3413 16.4377 13.7608 16.4034 14.1889 16.3349C14.7888 16.2196 15.0889 16.1618 15.267 16.2731C15.2814 16.2821 15.2912 16.2887 15.3047 16.2989C15.4727 16.425 15.5216 16.695 15.6194 17.235L15.7807 18.1262C15.856 18.5417 15.8936 18.7495 15.788 18.923C15.6824 19.0966 15.4941 19.1545 15.1175 19.2704C14.8866 19.3415 14.6456 19.4075 14.3943 19.4683C13.8293 19.6053 13.1358 19.6738 12.3139 19.6738C11.2695 19.6738 10.4048 19.5368 9.71988 19.2629C9.03498 18.9718 8.48706 18.578 8.07611 18.0814C7.66517 17.5677 7.37409 16.9513 7.20286 16.2322C7.04876 15.513 6.97171 14.7168 6.97171 13.8436V3.40292Z"/>
<path d="M18.2532 12.6621C18.2532 11.4636 18.433 10.4191 18.7925 9.5287C19.1692 8.62121 19.6572 7.86782 20.2565 7.26853C20.8558 6.66924 21.5407 6.21549 22.3112 5.90729C23.0989 5.59908 23.9036 5.44498 24.7255 5.44498C26.6432 5.44498 28.1586 6.0357 29.2715 7.21716C30.3845 8.38149 30.941 10.1023 30.941 12.3796C30.941 12.6022 30.9324 12.8505 30.9153 13.1244C30.903 13.3094 30.8968 13.4019 30.8661 13.4797C30.8078 13.627 30.6827 13.744 30.5318 13.7924C30.4521 13.8179 30.3576 13.8179 30.1686 13.8179H23.3756C22.7974 13.8179 22.5083 13.8179 22.3556 14.0943C22.203 14.3708 22.3221 14.56 22.5604 14.9385C22.741 15.2254 22.9833 15.4769 23.2872 15.6928C23.9379 16.1551 24.8111 16.3863 25.907 16.3863C26.609 16.3863 27.2939 16.3264 27.9617 16.2065C28.0844 16.1819 28.203 16.1566 28.3175 16.1304C28.9857 15.9775 29.3198 15.901 29.5118 16.0299C29.7039 16.1588 29.7546 16.4655 29.856 17.0788L30.0161 18.0475C30.0786 18.4257 30.1098 18.6148 30.0046 18.7854C29.8993 18.9559 29.7358 19.0067 29.4086 19.1083C29.3805 19.117 29.352 19.1257 29.3229 19.1344C28.9805 19.2372 28.5952 19.3228 28.1671 19.3913C27.7562 19.4769 27.311 19.5454 26.8316 19.5968C26.3521 19.6481 25.8727 19.6738 25.3933 19.6738C24.1776 19.6738 23.116 19.494 22.2085 19.1344C21.3181 18.7749 20.5733 18.2869 19.974 17.6705C19.3918 17.0369 18.9552 16.2921 18.6641 15.436C18.3902 14.5799 18.2532 13.6552 18.2532 12.6621ZM26.2724 11.1982C26.6421 11.1982 26.8268 11.1982 26.9742 11.0787C27.0374 11.0274 27.1093 10.9276 27.138 10.8514C27.2047 10.6738 27.1574 10.5318 27.0627 10.2478C26.9771 9.93964 26.8316 9.66568 26.6261 9.42597C26.4378 9.18625 26.1895 8.98934 25.8813 8.83524C25.5902 8.68114 25.2221 8.60409 24.7769 8.60409C24.3488 8.60409 23.9807 8.68114 23.6725 8.83524C23.3643 8.97222 23.1074 9.16057 22.902 9.40028C22.6965 9.64 22.5338 9.92252 22.414 10.2478C22.3285 10.5043 22.2858 10.6325 22.3165 10.7754C22.345 10.9085 22.4504 11.0546 22.5676 11.1238C22.6934 11.1982 22.8496 11.1982 23.162 11.1982H26.2724Z"/>
<path d="M40.7636 12.508C40.7636 11.2752 40.6009 10.4019 40.2756 9.88826C39.9674 9.37458 39.4281 9.11774 38.6575 9.11774C38.4178 9.11774 38.1695 9.13486 37.9127 9.16911C37.6654 9.18559 37.5418 9.19383 37.4332 9.25724C37.3477 9.30716 37.268 9.39234 37.2239 9.48095C37.1679 9.59359 37.1679 9.72741 37.1679 9.99516V18.6036C37.1679 19.1081 37.1679 19.3603 37.0112 19.5171C36.8544 19.6738 36.6022 19.6738 36.0977 19.6738H34.4111C33.9067 19.6738 33.6544 19.6738 33.4977 19.5171C33.341 19.3603 33.341 19.1081 33.341 18.6036V7.4514C33.341 7.05185 33.341 6.85211 33.4601 6.70491C33.5792 6.55771 33.7674 6.51752 34.1438 6.43715C34.2493 6.41463 34.3584 6.3921 34.4711 6.36957C34.9163 6.26684 35.3786 6.18122 35.858 6.11273C36.3546 6.02712 36.8597 5.96719 37.3733 5.93295C37.887 5.88158 38.3921 5.8559 38.8887 5.8559C39.8647 5.8559 40.6523 5.98432 41.2516 6.24115C41.5525 6.35818 41.8269 6.4874 42.0747 6.62893C42.4609 6.84943 42.6541 6.95966 42.7914 6.96191C42.9286 6.96415 43.1146 6.86591 43.4868 6.66948C43.8454 6.48017 44.2303 6.32024 44.6419 6.18979C45.361 5.96719 46.0202 5.8559 46.6195 5.8559C47.6982 5.8559 48.5801 6.01 49.265 6.3182C49.967 6.60929 50.5235 7.02879 50.9344 7.57671C51.3453 8.12463 51.6279 8.77529 51.782 9.52868C51.9361 10.2821 52.0131 11.1211 52.0131 12.0457V18.6036C52.0131 19.1081 52.0131 19.3603 51.8564 19.5171C51.6997 19.6738 51.4474 19.6738 50.943 19.6738H49.2564C48.7519 19.6738 48.4997 19.6738 48.343 19.5171C48.1862 19.3603 48.1862 19.1081 48.1862 18.6036V12.508C48.1862 11.2752 48.0236 10.4019 47.6982 9.88826C47.39 9.37458 46.8507 9.11774 46.0802 9.11774C45.8747 9.11774 45.5836 9.16911 45.2069 9.27184C45.1505 9.28795 45.0956 9.3047 45.0422 9.32203C44.7433 9.4192 44.5939 9.46779 44.4908 9.635C44.3877 9.80227 44.4203 10.0168 44.4857 10.4459C44.509 10.5991 44.5268 10.7557 44.5391 10.9156C44.5734 11.3437 44.5905 11.806 44.5905 12.3025V18.6036C44.5905 19.1081 44.5905 19.3603 44.4338 19.5171C44.2771 19.6738 44.0248 19.6738 43.5203 19.6738H41.8338C41.3293 19.6738 41.0771 19.6738 40.9203 19.5171C40.7636 19.3603 40.7636 19.1081 40.7636 18.6036V12.508Z"/>
<path d="M58.9955 16.5661C59.6975 16.5661 60.1941 16.4976 60.4851 16.3606C60.7762 16.2236 60.9218 15.9582 60.9218 15.5644C60.9218 15.2562 60.7334 14.9908 60.3567 14.7682C59.98 14.5285 59.4064 14.2631 58.6359 13.972C58.0366 13.7494 57.4887 13.5183 56.9921 13.2785C56.5127 13.0388 56.1018 12.7563 55.7593 12.431C55.4169 12.0885 55.1515 11.6861 54.9631 11.2238C54.7748 10.7615 54.6806 10.205 54.6806 9.55439C54.6806 8.28732 55.1515 7.28565 56.0932 6.54938C57.035 5.81311 58.3277 5.44498 59.9715 5.44498C60.7934 5.44498 61.581 5.52203 62.3344 5.67613C62.6699 5.73713 62.9749 5.80155 63.2488 5.86935C63.6475 5.96775 63.8465 6.01692 63.961 6.20254C64.0761 6.38811 64.0274 6.60535 63.93 7.03973L63.7261 7.94861C63.6057 8.4853 63.5458 8.75359 63.3542 8.872C63.1632 8.99041 62.8802 8.92064 62.3146 8.78109C62.2119 8.75562 62.107 8.7309 62.0005 8.70682C61.4868 8.58696 60.9047 8.52703 60.254 8.52703C59.0554 8.52703 58.4561 8.86092 58.4561 9.5287C58.4561 9.68281 58.4818 9.81979 58.5332 9.93964C58.5845 10.0595 58.6873 10.1794 58.8414 10.2992C58.9955 10.402 59.201 10.5218 59.4578 10.6588C59.7318 10.7786 60.0742 10.9156 60.4851 11.0697C61.3242 11.3779 62.0176 11.6861 62.5655 11.9943C63.1135 12.2854 63.5415 12.6108 63.8497 12.9703C64.1751 13.3128 64.3977 13.698 64.5175 14.1261C64.6545 14.5542 64.723 15.0507 64.723 15.6158C64.723 16.9513 64.2179 17.9616 63.2076 18.6465C62.2145 19.3314 60.8019 19.6738 58.9698 19.6738C57.7712 19.6738 56.7696 19.5711 55.9648 19.3656C55.6496 19.2834 55.3725 19.2067 55.1344 19.1354C54.7673 19.0257 54.5838 18.9708 54.4767 18.7921C54.3703 18.6134 54.412 18.4114 54.4955 18.0076L54.7052 16.9902C54.8224 16.4237 54.8813 16.1405 55.0814 16.0196C55.282 15.8988 55.5769 15.9842 56.1665 16.1551C56.4303 16.2315 56.6968 16.3 56.9665 16.3606C57.6514 16.4976 58.3277 16.5661 58.9955 16.5661Z"/>
<path d="M67.123 12.5594C67.123 11.5834 67.2771 10.6674 67.5853 9.81122C67.9106 8.93798 68.3729 8.18458 68.9722 7.55105C69.5715 6.90039 70.2992 6.38672 71.1553 6.01002C72.0115 5.63333 72.9875 5.44498 74.0833 5.44498C74.8024 5.44498 75.4617 5.51347 76.061 5.65045C76.3585 5.70989 76.6511 5.78406 76.9401 5.87299C77.3371 5.9952 77.5356 6.0563 77.64 6.2439C77.7448 6.4315 77.6881 6.64896 77.5747 7.08393L77.3125 8.09089C77.175 8.61778 77.1065 8.8812 76.9181 8.99362C76.7303 9.10599 76.4435 9.03616 75.871 8.89645C75.8571 8.89319 75.8437 8.88987 75.8298 8.88661C75.4017 8.78387 74.9223 8.7325 74.3915 8.7325C73.2614 8.7325 72.4138 9.08352 71.8488 9.78554C71.3009 10.4876 71.0269 11.4122 71.0269 12.5594C71.0269 13.7751 71.2838 14.7168 71.7974 15.3846C72.3282 16.0524 73.2443 16.3863 74.5456 16.3863C75.0079 16.3863 75.5045 16.3435 76.0353 16.2579C76.0936 16.2485 76.1508 16.2385 76.2076 16.228C76.8759 16.1039 77.2098 16.0419 77.3933 16.1697C77.5768 16.2976 77.6277 16.5906 77.7283 17.1768L77.8947 18.1439C77.9648 18.5515 78.0001 18.7553 77.8909 18.9288C77.7823 19.1022 77.6004 19.1542 77.2376 19.2581C76.9727 19.3339 76.6833 19.4039 76.3692 19.4683C75.7014 19.6053 74.9651 19.6738 74.1604 19.6738C72.9275 19.6738 71.8659 19.494 70.9756 19.1344C70.0852 18.7578 69.3489 18.2526 68.7668 17.6191C68.2017 16.9856 67.7822 16.2407 67.5082 15.3846C67.2514 14.5114 67.123 13.5696 67.123 12.5594Z"/>
<path d="M93.6391 12.5337C93.6391 13.5953 93.485 14.5713 93.1768 15.4617C92.8686 16.3349 92.4234 17.0883 91.8412 17.7218C91.259 18.3383 90.557 18.8177 89.7351 19.1601C88.9304 19.5026 88.0229 19.6738 87.0126 19.6738C86.0195 19.6738 85.112 19.5026 84.2902 19.1601C83.4854 18.8177 82.7919 18.3383 82.2098 17.7218C81.6276 17.0883 81.1739 16.3349 80.8485 15.4617C80.5232 14.5713 80.3605 13.5953 80.3605 12.5337C80.3605 11.4721 80.5232 10.5047 80.8485 9.63144C81.191 8.75819 81.6533 8.01336 82.2354 7.39695C82.8347 6.78054 83.5368 6.3011 84.3415 5.95865C85.1634 5.6162 86.0538 5.44498 87.0126 5.44498C87.9886 5.44498 88.879 5.6162 89.6838 5.95865C90.5056 6.3011 91.2077 6.78054 91.7898 7.39695C92.372 8.01336 92.8258 8.75819 93.1511 9.63144C93.4764 10.5047 93.6391 11.4721 93.6391 12.5337ZM89.7351 12.5337C89.7351 11.3523 89.4954 10.4276 89.016 9.75986C88.5537 9.07496 87.8859 8.7325 87.0126 8.7325C86.1394 8.7325 85.4631 9.07496 84.9836 9.75986C84.5042 10.4276 84.2645 11.3523 84.2645 12.5337C84.2645 13.7152 84.5042 14.6569 84.9836 15.3589C85.4631 16.0438 86.1394 16.3863 87.0126 16.3863C87.8859 16.3863 88.5537 16.0438 89.016 15.3589C89.4954 14.6569 89.7351 13.7152 89.7351 12.5337Z"/>
<path d="M107.7 18.0989C107.7 18.4901 107.7 18.6858 107.582 18.8324C107.465 18.979 107.283 19.0197 106.92 19.1008C106.417 19.2132 105.839 19.3186 105.183 19.417C104.155 19.5882 103.076 19.6738 101.946 19.6738C100.799 19.6738 99.8403 19.5197 99.0698 19.2115C98.3164 18.9033 97.7171 18.4752 97.2719 17.9273C96.8267 17.3622 96.5099 16.6945 96.3216 15.924C96.1332 15.1534 96.0391 14.3059 96.0391 13.3813V6.92605C96.0391 6.42158 96.0391 6.16935 96.1958 6.01262C96.3526 5.8559 96.6047 5.8559 97.1092 5.8559H98.7958C99.3004 5.8559 99.5524 5.8559 99.7092 6.01262C99.866 6.16935 99.866 6.42158 99.866 6.92605V12.9189C99.866 14.1518 100.029 15.0421 100.354 15.5901C100.679 16.138 101.287 16.4119 102.178 16.4119C102.451 16.4119 102.743 16.4034 103.051 16.3863C103.386 16.349 103.553 16.3304 103.676 16.2308C103.718 16.1961 103.757 16.1523 103.787 16.1061C103.873 15.9737 103.873 15.8008 103.873 15.4552V6.92605C103.873 6.42158 103.873 6.16935 104.029 6.01262C104.186 5.8559 104.438 5.8559 104.943 5.8559H106.629C107.134 5.8559 107.386 5.8559 107.543 6.01262C107.7 6.16935 107.7 6.42158 107.7 6.92605V18.0989Z"/>
<path d="M110.1 3.40292C110.1 2.96772 110.1 2.75013 110.227 2.60015C110.355 2.45019 110.569 2.41558 110.999 2.34638L112.686 2.07471C113.262 1.98192 113.55 1.93552 113.738 2.09576C113.926 2.25599 113.926 2.54774 113.926 3.13125V4.78576C113.926 5.29023 113.926 5.54247 114.083 5.6992C114.239 5.85592 114.492 5.85592 114.997 5.85592H117.454C117.958 5.85592 118.21 5.85592 118.367 6.01265C118.524 6.16937 118.524 6.42161 118.524 6.92608V7.97055C118.524 8.47503 118.524 8.72726 118.367 8.88399C118.21 9.04071 117.958 9.04071 117.454 9.04071H114.997C114.492 9.04071 114.239 9.04071 114.083 9.19744C113.926 9.35416 113.926 9.6064 113.926 10.1109V13.7922C113.926 14.597 114.063 15.2391 114.337 15.7185C114.628 16.1979 115.202 16.4377 116.058 16.4377C116.469 16.4377 116.889 16.4034 117.317 16.3349C117.917 16.2196 118.216 16.1618 118.394 16.2731C118.409 16.2821 118.419 16.2887 118.432 16.2989C118.6 16.425 118.649 16.695 118.747 17.235L118.909 18.1262C118.983 18.5417 119.021 18.7495 118.916 18.923C118.81 19.0966 118.622 19.1545 118.245 19.2704C118.014 19.3415 117.773 19.4075 117.522 19.4683C116.957 19.6053 116.264 19.6738 115.442 19.6738C114.397 19.6738 113.533 19.5368 112.848 19.2629C112.163 18.9718 111.615 18.578 111.204 18.0814C110.793 17.5677 110.502 16.9513 110.331 16.2322C110.177 15.513 110.1 14.7168 110.1 13.8436V3.40292Z"/>
</svg>