<svg width="128" height="128" viewBox="0 0 128 128" fill="none" xmlns="http://www.w3.org/2000/svg">
<g>
    <mask id="mask" style="mask-type:alpha" maskUnits="userSpaceOnUse" x="0" y="0" width="128" height="128">
        <path d="M0 64C0 33.8301 0 18.7452 9.37258 9.37258C18.7452 0 33.8301 0 64 0C94.1699 0 109.255 0 118.627 9.37258C128 18.7452 128 33.8301 128 64C128 94.1699 128 109.255 118.627 118.627C109.255 128 94.1699 128 64 128C33.8301 128 18.7452 128 9.37258 118.627C0 109.255 0 94.1699 0 64Z" fill="#001C34"/>
    </mask>
    <g mask="url(#mask)">
        <path d="M116 0H12C5.37258 0 0 5.37258 0 12V116C0 122.627 5.37258 128 12 128H116C122.627 128 128 122.627 128 116V12C128 5.37258 122.627 0 116 0Z" fill="#002C52"/>
        <path d="M40.3808 43.4288L-46.4764 114.286V194.286H135.238V33.1431L82.6665 85.7145L40.3808 43.4288Z" fill="#268DFF"/>
        <path fill-rule="evenodd" clip-rule="evenodd" d="M142.038 27.4863C145.162 30.6105 145.162 35.6758 142.038 38.8L89.4667 91.3714C86.3425 94.4956 81.2771 94.4956 78.1529 91.3714L40.9792 54.1977L-40.2761 120.485C-43.6996 123.278 -48.7391 122.766 -51.532 119.343C-54.3249 115.919 -53.8136 110.88 -50.3901 108.087L36.4671 37.23C39.6484 34.6347 44.2778 34.8689 47.1809 37.772L83.8098 74.4009L130.724 27.4863C133.849 24.3621 138.914 24.3621 142.038 27.4863Z" fill="#FFFFFF"/>
    </g>
</g>
</svg>